<svg xmlns="http://www.w3.org/2000/svg" width="39.128" height="47.514" viewBox="0 0 39.128 47.514">
  <path id="Apple" d="M12.616,47.514c-3.1,0-5.36-2.878-7.6-6.085-4.476-6.415-7.049-16.993-3-23.963A11.985,11.985,0,0,1,12.1,11.413h.125A13.5,13.5,0,0,1,17.1,12.64a8.832,8.832,0,0,0,2.776.806,9.018,9.018,0,0,0,2.678-.794,15.6,15.6,0,0,1,5.591-1.385c.264,0,.526.013.777.038a11.355,11.355,0,0,1,8.907,4.8.389.389,0,0,1-.111.547l-.039.024a10.212,10.212,0,0,0-4.866,8.542,9.937,9.937,0,0,0,6.062,9.092l.014.006.014.006a.388.388,0,0,1,.209.477l-.014.043a26.049,26.049,0,0,1-3.3,6.7c-1.89,2.74-4.032,5.846-7.524,5.911h-.147a8.555,8.555,0,0,1-3.65-.9l-.01,0a9.146,9.146,0,0,0-3.974-.95,9.712,9.712,0,0,0-4.176.982,9.431,9.431,0,0,1-3.524.932Q12.7,47.514,12.616,47.514Zm7.36-35.947c-.17,0-.34-.006-.507-.019a.394.394,0,0,1-.358-.337A10.12,10.12,0,0,1,21.7,3.674,10.968,10.968,0,0,1,28.921,0h.015a.4.4,0,0,1,.392.347A10.657,10.657,0,0,1,26.789,8.1,9.27,9.27,0,0,1,19.976,11.567Z" fill="#fff"/>
</svg>
