<svg xmlns="http://www.w3.org/2000/svg" width="46.782" height="41.432" viewBox="0 0 46.782 41.432">
  <g id="contact-us" transform="translate(0 -29.275)">
    <path id="Path_723" data-name="Path 723" d="M37.359,85.839,32.9,81.388a5.271,5.271,0,0,0-7.409-.4l-1.517,1.515a1.906,1.906,0,0,1-2.594-.329l-4.174-4.17a1.875,1.875,0,0,1-.329-2.587L18.4,73.905c2.014-2.012,1.68-5.329-.4-7.4l-4.456-4.451a5.272,5.272,0,0,0-7.409-.4L2.81,64.974a9.259,9.259,0,0,0-1.245,11.8C3.642,79.99,16.05,92.419,22.36,96.859c3.921,2.759,8.973,2.8,12.071-.293l3.325-3.322C39.771,91.232,39.437,87.915,37.359,85.839Z" transform="translate(0 -28.202)"/>
    <path id="Path_724" data-name="Path 724" d="M278.48,34.5a1.37,1.37,0,0,0,1.608-1.082,1.731,1.731,0,0,1,3.431.267l-.038.3a6.78,6.78,0,0,1-1.064,2.11c-4.329,6.216-4.9,6.158-4.553,7.288a1.427,1.427,0,0,0,.926.938,63.91,63.91,0,0,0,6.648.118,1.371,1.371,0,1,0-.022-2.741c-1.245.01-2.567.014-3.655.011.675-.907,1.621-2.2,2.9-4.047a7.962,7.962,0,0,0,1.6-3.9A4.473,4.473,0,0,0,277.4,32.9,1.371,1.371,0,0,0,278.48,34.5Z" transform="translate(-252.028)"/>
    <path id="Path_725" data-name="Path 725" d="M405.586,38.253h-.213c.017-2.992.027-6.206-.01-6.649a2.091,2.091,0,0,0-3.836-1.181c-.707.866-3.976,6.754-4.962,8.538a1.371,1.371,0,0,0,1.2,2.033h4.848c-.006.811-.012,1.588-.018,2.289a1.371,1.371,0,0,0,2.741.024c0-.431.011-1.271.019-2.313h.231a1.371,1.371,0,1,0,0-2.741Zm-2.955,0H400.1c.949-1.7,1.874-3.322,2.552-4.476C402.648,34.973,402.642,36.583,402.632,38.253Z" transform="translate(-360.175 -0.191)"/>
  </g>
</svg>
