<svg id="idea" xmlns="http://www.w3.org/2000/svg" width="43.606" height="43.606" viewBox="0 0 43.606 43.606">
  <path id="Path_697" data-name="Path 697" d="M12.613,6.281A1.363,1.363,0,0,1,11.25,4.918V1.363a1.363,1.363,0,0,1,2.725,0V4.918A1.363,1.363,0,0,1,12.613,6.281Z" transform="translate(9.19)"/>
  <path id="Path_698" data-name="Path 698" d="M19.183,8.536a1.364,1.364,0,0,1-.963-2.327l2.515-2.515a1.363,1.363,0,0,1,1.928,1.928L20.148,8.136A1.367,1.367,0,0,1,19.183,8.536Z" transform="translate(14.558 2.691)"/>
  <path id="Path_699" data-name="Path 699" d="M25.461,13.975H21.906a1.363,1.363,0,1,1,0-2.725h3.556a1.363,1.363,0,0,1,0,2.725Z" transform="translate(16.782 9.19)"/>
  <path id="Path_700" data-name="Path 700" d="M21.7,23.062a1.352,1.352,0,0,1-.963-.4l-2.515-2.515a1.363,1.363,0,0,1,1.928-1.928l2.515,2.515a1.364,1.364,0,0,1-.965,2.327Z" transform="translate(14.558 14.557)"/>
  <path id="Path_701" data-name="Path 701" d="M4.657,23.062a1.364,1.364,0,0,1-.963-2.327L6.209,18.22a1.363,1.363,0,0,1,1.928,1.928L5.622,22.662A1.359,1.359,0,0,1,4.657,23.062Z" transform="translate(2.692 14.557)"/>
  <path id="Path_702" data-name="Path 702" d="M4.918,13.975H1.363a1.363,1.363,0,0,1,0-2.725H4.918a1.363,1.363,0,1,1,0,2.725Z" transform="translate(0 9.19)"/>
  <path id="Path_703" data-name="Path 703" d="M7.172,8.536a1.352,1.352,0,0,1-.963-.4L3.695,5.621A1.363,1.363,0,0,1,5.622,3.694L8.137,6.208a1.364,1.364,0,0,1-.965,2.327Z" transform="translate(2.692 2.691)"/>
  <path id="Path_704" data-name="Path 704" d="M19.9,21v2.271a3.2,3.2,0,0,1-3.18,3.18H12.18c-1.526,0-3.18-1.163-3.18-3.706V21Z" transform="translate(7.352 17.155)"/>
  <path id="Path_705" data-name="Path 705" d="M25.732,7.833A12.72,12.72,0,1,0,10.07,27.874a5.486,5.486,0,0,1,2.071,3.47v.018a.309.309,0,0,1,.127-.018h10.9a.164.164,0,0,1,.091.018v-.018a6.06,6.06,0,0,1,2.326-3.634,12.725,12.725,0,0,0,.145-19.877Zm-1.2,10.792a1.373,1.373,0,0,1-1.363-1.363,4.994,4.994,0,0,0-5-5,1.363,1.363,0,0,1,0-2.725A7.739,7.739,0,0,1,25.9,17.263,1.373,1.373,0,0,1,24.533,18.626Z" transform="translate(4.083 4.086)"/>
  <path id="Path_706" data-name="Path 706" d="M8.93,19.5h.127a.309.309,0,0,0-.127.018Z" transform="translate(7.295 15.93)"/>
  <path id="Path_707" data-name="Path 707" d="M15.091,19.5v.018A.164.164,0,0,0,15,19.5Z" transform="translate(12.254 15.93)"/>
</svg>
