<svg xmlns="http://www.w3.org/2000/svg" width="50.098" height="41.428" viewBox="0 0 50.098 41.428">
  <g id="solid" transform="translate(-48 -144)">
    <path id="Path_709" data-name="Path 709" d="M192,181.574v3.854h1.927v-2.89h11.561v2.89h1.927V144H192Zm3.854-35.647h7.707v1.927h-7.707Zm0,3.854h7.707v1.927h-7.707Zm0,3.854h7.707v1.927h-7.707Zm0,6.744a1.926,1.926,0,0,1,.963,3.594V165.2H194.89v-1.223a1.926,1.926,0,0,1,.963-3.594Z" transform="translate(-126.658 0)"/>
    <path id="Path_710" data-name="Path 710" d="M351.174,144H336v18.305h15.415V144.241A.241.241,0,0,0,351.174,144Zm-10.357,14.192v1.223H338.89v-1.223a1.927,1.927,0,1,1,1.927,0Zm6.744-6.484h-7.707v-1.927h7.707Zm0-3.854h-7.707v-1.927h7.707Z" transform="translate(-253.316 0)"/>
    <path id="Path_711" data-name="Path 711" d="M336,329.342V333.2h1.927v-2.89h11.561v2.89h1.927V312H336Zm3.854-15.415h7.707v1.927h-7.707Zm0,3.854h7.707v1.927h-7.707Zm0,3.854a1.926,1.926,0,0,1,.963,3.594v1.223H338.89v-1.223a1.926,1.926,0,0,1,.963-3.594Z" transform="translate(-253.316 -147.768)"/>
    <path id="Path_712" data-name="Path 712" d="M48,144.241v41.187h1.927v-2.89H61.488v2.89h1.927V144H48.241A.241.241,0,0,0,48,144.241Zm3.854,1.686h7.707v1.927H51.854Zm0,3.854h7.707v1.927H51.854Zm0,3.854h7.707v1.927H51.854Zm0,6.744a1.926,1.926,0,0,1,.963,3.594V165.2H50.89v-1.223a1.926,1.926,0,0,1,.963-3.594Z" transform="translate(0 0)"/>
  </g>
</svg>
