<svg xmlns="http://www.w3.org/2000/svg" width="45.565" height="34.708" viewBox="0 0 45.565 34.708">
  <g id="mail" transform="translate(0 -61)">
    <g id="Group_527" data-name="Group 527" transform="translate(2.289 61)">
      <g id="Group_526" data-name="Group 526">
        <path id="Path_713" data-name="Path 713" d="M64.992,61H27.437a3.958,3.958,0,0,0-1.716.4l20.4,20.4,4.573-4.4h0L66.708,61.4A3.958,3.958,0,0,0,64.992,61Z" transform="translate(-25.721 -61)"/>
      </g>
    </g>
    <g id="Group_529" data-name="Group 529" transform="translate(30.099 63.29)">
      <g id="Group_528" data-name="Group 528">
        <path id="Path_714" data-name="Path 714" d="M353.278,86.728l-15.065,15.064,15.065,15.065a3.958,3.958,0,0,0,.4-1.716v-26.7A3.959,3.959,0,0,0,353.278,86.728Z" transform="translate(-338.213 -86.728)"/>
      </g>
    </g>
    <g id="Group_531" data-name="Group 531" transform="translate(0 63.289)">
      <g id="Group_530" data-name="Group 530">
        <path id="Path_715" data-name="Path 715" d="M.4,86.721A3.958,3.958,0,0,0,0,88.437v26.7a3.959,3.959,0,0,0,.4,1.715l15.065-15.064Z" transform="translate(0 -86.721)"/>
      </g>
    </g>
    <g id="Group_533" data-name="Group 533" transform="translate(2.288 80.241)">
      <g id="Group_532" data-name="Group 532">
        <path id="Path_716" data-name="Path 716" d="M51.637,277.211l-4.574,4.4a1.334,1.334,0,0,1-1.888,0l-4.4-4.4L25.714,292.275a3.959,3.959,0,0,0,1.716.4H64.986a3.959,3.959,0,0,0,1.716-.4Z" transform="translate(-25.714 -277.211)"/>
      </g>
    </g>
  </g>
</svg>
