<svg id="request" xmlns="http://www.w3.org/2000/svg" width="41.418" height="41.418" viewBox="0 0 41.418 41.418">
  <path id="Path_719" data-name="Path 719" d="M29.61,0H1.213A1.213,1.213,0,0,0,0,1.213V40.2a1.213,1.213,0,0,0,1.213,1.213h28.4A1.213,1.213,0,0,0,30.823,40.2V1.213A1.213,1.213,0,0,0,29.61,0ZM12.739,23.754,9.053,27.44a1.213,1.213,0,0,1-1.716,0L5.6,25.7a1.213,1.213,0,0,1,1.716-1.716l.879.879,2.828-2.828a1.213,1.213,0,1,1,1.716,1.716Zm0-7.362L9.053,20.078a1.213,1.213,0,0,1-1.716,0L5.6,18.341a1.213,1.213,0,1,1,1.716-1.716L8.2,17.5l2.828-2.828a1.213,1.213,0,1,1,1.716,1.716Zm0-7.362L9.053,12.716a1.213,1.213,0,0,1-1.716,0L5.6,10.979A1.213,1.213,0,0,1,7.316,9.263l.879.879,2.828-2.828a1.213,1.213,0,1,1,1.716,1.716ZM24.3,33.99H16.6a1.213,1.213,0,1,1,0-2.427H24.3a1.213,1.213,0,1,1,0,2.427Zm0-7.644H16.6a1.213,1.213,0,1,1,0-2.427H24.3a1.213,1.213,0,1,1,0,2.427Zm0-7.362H16.6a1.213,1.213,0,1,1,0-2.427H24.3a1.213,1.213,0,1,1,0,2.427Zm0-7.362H16.6a1.213,1.213,0,1,1,0-2.427H24.3a1.213,1.213,0,1,1,0,2.427Z" transform="translate(0 0)"/>
  <path id="Path_720" data-name="Path 720" d="M418.414,4.118a4.118,4.118,0,0,0-8.237,0V7.677h8.237Z" transform="translate(-376.996 0)"/>
  <path id="Path_721" data-name="Path 721" d="M410.249,390.249a1.213,1.213,0,0,0,.038.919l2.905,6.329a1.213,1.213,0,0,0,2.206,0l2.905-6.329a1.214,1.214,0,0,0,.038-.919l-.746-2.06h-6.6Z" transform="translate(-376.995 -356.787)"/>
  <path id="Path_722" data-name="Path 722" d="M418.414,142.564V124.906h-8.237v17.658a1.213,1.213,0,0,0,1.213,1.213h5.81A1.213,1.213,0,0,0,418.414,142.564Z" transform="translate(-376.996 -114.802)"/>
</svg>
