<svg id="burger" xmlns="http://www.w3.org/2000/svg" width="11.761" height="11.761" viewBox="0 0 11.761 11.761">
  <defs>
    <style>
      .cls-1 {
        fill: #426bc9;
      }
    </style>
  </defs>
  <path id="Path_108" data-name="Path 108" class="cls-1" d="M22.178,156.687a1.034,1.034,0,0,1-.521-.9,2.875,2.875,0,0,1,2.871-2.871h1.183l.056-.919h-6.7l.482,7.946a.345.345,0,0,0,.344.324H22a1.714,1.714,0,0,1-.345-1.034,1.035,1.035,0,0,1,.683-.972,1.373,1.373,0,0,1,0-1.5C22.228,156.737,22.165,156.712,22.178,156.687Zm0,0" transform="translate(-18.625 -148.508)"/>
  <path id="Path_109" data-name="Path 109" class="cls-1" d="M3.79,2.8H7.236a.345.345,0,1,0,0-.689H4.426L5.355.689H6.547a.345.345,0,1,0,0-.689H5.169A.344.344,0,0,0,4.88.156L3.6,2.113H.345a.345.345,0,0,0,0,.689H3.79Zm0,0"/>
  <path id="Path_110" data-name="Path 110" class="cls-1" d="M162,224.182a.345.345,0,0,0,.345.345H169.7a.345.345,0,0,0,.345-.345A2.185,2.185,0,0,0,167.858,222h-3.675A2.185,2.185,0,0,0,162,224.182Zm0,0" transform="translate(-158.279 -216.9)"/>
  <path id="Path_111" data-name="Path 111" class="cls-1" d="M182.689,362a.689.689,0,0,0,0,1.378h5.743a.689.689,0,0,0,0-1.378Zm0,0" transform="translate(-177.819 -353.684)"/>
  <path id="Path_112" data-name="Path 112" class="cls-1" d="M169.7,452h-7.351a.345.345,0,0,0-.345.345,1.035,1.035,0,0,0,1.034,1.034h5.973a1.035,1.035,0,0,0,1.034-1.034A.345.345,0,0,0,169.7,452Zm0,0" transform="translate(-158.279 -441.617)"/>
</svg>
