<svg xmlns="http://www.w3.org/2000/svg" width="18.698" height="19.963" viewBox="0 0 18.698 19.963"><g transform="translate(-3705 -347)"><g transform="translate(3651.988 341.655)"><path d="M184.9,465.044a3.563,3.563,0,0,0,6.522,0Z" transform="translate(-125.805 -441.864)"/><path d="M71,95.273H53.724a.7.7,0,0,1-.694-.54.672.672,0,0,1,.37-.764,3.665,3.665,0,0,0,1.115-1.516,17.521,17.521,0,0,0,1.163-6.934,6.683,6.683,0,1,1,13.365-.027c0,.009,0,.018,0,.027a17.521,17.521,0,0,0,1.163,6.934,3.665,3.665,0,0,0,1.115,1.516.671.671,0,0,1,.37.764A.7.7,0,0,1,71,95.273Zm.332-1.3Z" transform="translate(0 -73.478)"/></g></g></svg>