<svg xmlns="http://www.w3.org/2000/svg" width="121.458" height="128.956" viewBox="0 0 121.458 128.956">
  <g id="Group_681" data-name="Group 681" transform="translate(120.958 128.456) rotate(180)">
    <g id="Group_524" data-name="Group 524" transform="translate(0)">
      <path id="Path_667" data-name="Path 667" d="M41.506,28.325a5,5,0,1,0,7.069,7.068l13.43-13.43a5.007,5.007,0,0,0,0-7.069L48.575,1.464a5,5,0,1,0-7.069,7.069l4.9,4.9H5a5,5,0,1,0,0,10H46.4Z" transform="translate(63.466 82.407) rotate(180)" fill="#fff" stroke="#fff" stroke-width="1"/>
      <path id="Path_668" data-name="Path 668" d="M217.471,0H136a5,5,0,0,0-5,5V23.992a5,5,0,0,0,10,0V10h71.476V117.96H141v-14a5,5,0,1,0-10,0v18.994a5,5,0,0,0,5,5h81.472a5,5,0,0,0,5-5V5A5,5,0,0,0,217.471,0Z" transform="translate(-102.01)" fill="#fff" stroke="#fff" stroke-width="1"/>
    </g>
  </g>
</svg>
