<svg xmlns="http://www.w3.org/2000/svg" width="25.123" height="18.911" viewBox="0 0 25.123 18.911">
  <g id="list" transform="translate(0 -7.434)">
    <path id="Path_605" data-name="Path 605" d="M31.973,48.4h-16.8a1.254,1.254,0,1,1,0-2.507h16.8a1.254,1.254,0,0,1,0,2.507Z" transform="translate(-8.103 -22.389)"/>
    <path id="Path_606" data-name="Path 606" d="M31.973,29.569h-16.8a1.254,1.254,0,1,1,0-2.507h16.8a1.254,1.254,0,0,1,0,2.507Z" transform="translate(-8.103 -11.426)"/>
    <path id="Path_607" data-name="Path 607" d="M31.973,10.738h-16.8a1.254,1.254,0,0,1,0-2.507h16.8a1.254,1.254,0,0,1,0,2.507Z" transform="translate(-8.103 -0.464)"/>
    <circle id="Ellipse_7" data-name="Ellipse 7" cx="1.684" cy="1.684" r="1.684" transform="translate(0 7.434)"/>
    <circle id="Ellipse_8" data-name="Ellipse 8" cx="1.684" cy="1.684" r="1.684" transform="translate(0 15.206)"/>
    <circle id="Ellipse_9" data-name="Ellipse 9" cx="1.684" cy="1.684" r="1.684" transform="translate(0 22.978)"/>
  </g>
</svg>
