<svg id="qr-code" xmlns="http://www.w3.org/2000/svg" width="41.632" height="41.632" viewBox="0 0 41.632 41.632">
  <path id="Path_775" data-name="Path 775" d="M15.612,0H0V15.612H15.612Zm-2.6,13.01H2.6V2.6H13.01Z"/>
  <path id="Path_776" data-name="Path 776" d="M2,2H7.2V7.2H2Z" transform="translate(3.204 3.204)"/>
  <path id="Path_777" data-name="Path 777" d="M0,25.612H15.612V10H0ZM2.6,12.6H13.01V23.01H2.6Z" transform="translate(0 16.02)"/>
  <path id="Path_778" data-name="Path 778" d="M2,12H7.2v5.2H2Z" transform="translate(3.204 19.224)"/>
  <path id="Path_779" data-name="Path 779" d="M10,0V15.612H25.612V0ZM23.01,13.01H12.6V2.6H23.01Z" transform="translate(16.02)"/>
  <path id="Path_780" data-name="Path 780" d="M12,2h5.2V7.2H12Z" transform="translate(19.224 3.204)"/>
  <path id="Path_781" data-name="Path 781" d="M5.2,7H0v5.2H7.806V9.6H5.2Z" transform="translate(0 11.214)"/>
  <path id="Path_782" data-name="Path 782" d="M7,9h5.2v5.2H7Z" transform="translate(11.214 14.418)"/>
  <path id="Path_783" data-name="Path 783" d="M3,7H8.2V9.6H3Z" transform="translate(4.806 11.214)"/>
  <path id="Path_784" data-name="Path 784" d="M12.2,12H7v2.6H9.6v2.6h2.6V12Z" transform="translate(11.214 19.224)"/>
  <path id="Path_785" data-name="Path 785" d="M7.6,7V9.6H5v2.6h5.2V7Z" transform="translate(8.01 11.214)"/>
  <path id="Path_786" data-name="Path 786" d="M8,4h2.6V9.2H8Z" transform="translate(12.816 6.408)"/>
  <path id="Path_787" data-name="Path 787" d="M10.6,9.6v2.6h5.2V7H8V9.6Z" transform="translate(12.816 11.214)"/>
  <path id="Path_788" data-name="Path 788" d="M7,6H9.6V8.6H7Z" transform="translate(11.214 9.612)"/>
  <path id="Path_789" data-name="Path 789" d="M9,14h5.2v5.2H9Z" transform="translate(14.418 22.428)"/>
  <path id="Path_790" data-name="Path 790" d="M7,14H9.6v5.2H7Z" transform="translate(11.214 22.428)"/>
  <path id="Path_791" data-name="Path 791" d="M9,11h2.6v2.6H9Z" transform="translate(14.418 17.622)"/>
  <path id="Path_792" data-name="Path 792" d="M12.2,7.806V2.6H9.6V0H7V10.408H9.6v-2.6Z" transform="translate(11.214)"/>
  <path id="Path_793" data-name="Path 793" d="M12,14h2.6v5.2H12Z" transform="translate(19.224 22.428)"/>
  <path id="Path_794" data-name="Path 794" d="M12,12h5.2v2.6H12Z" transform="translate(19.224 19.224)"/>
  <path id="Path_795" data-name="Path 795" d="M11,13h2.6v2.6H11Z" transform="translate(17.622 20.826)"/>
  <path id="Path_796" data-name="Path 796" d="M10,12h2.6v2.6H10Z" transform="translate(16.02 19.224)"/>
  <path id="Path_797" data-name="Path 797" d="M14,10v2.6h2.6v2.6h2.6V10H14Z" transform="translate(22.428 16.02)"/>
  <path id="Path_798" data-name="Path 798" d="M16.6,13H14v7.806h5.2V15.6H16.6Z" transform="translate(22.428 20.826)"/>
  <path id="Path_799" data-name="Path 799" d="M10,11.6v2.6h7.806V9H12.6v2.6Z" transform="translate(16.02 14.418)"/>
  <path id="Path_800" data-name="Path 800" d="M12,7V9.6h5.2v2.6h5.2V7H12Z" transform="translate(19.224 11.214)"/>
</svg>
