<svg xmlns="http://www.w3.org/2000/svg" width="75" height="55" viewBox="0 0 75 55">
  <g id="Group_541" data-name="Group 541" transform="translate(-125 -757)">
    <rect id="Rectangle_233" data-name="Rectangle 233" class="cls-1" width="75" height="55" transform="translate(125 757)"/>
    <g id="time-left" transform="translate(149.763 771.569)">
      <g id="Layer_2_16_">
        <g id="Group_469" data-name="Group 469">
          <path id="Path_256" data-name="Path 256" class="cls-2" d="M254.15,423.186c-.211.053-.427.1-.64.139a1.03,1.03,0,0,0,.375,2.025c.255-.047.511-.1.763-.166a1.03,1.03,0,0,0-.5-2Z" transform="translate(-238.754 -399.947)"/>
          <path id="Path_257" data-name="Path 257" class="cls-2" d="M412.758,138.239a1.03,1.03,0,0,0,1.955-.647c-.081-.246-.172-.493-.268-.733a1.03,1.03,0,1,0-1.912.765C412.614,137.824,412.69,138.032,412.758,138.239Z" transform="translate(-389.747 -128.802)"/>
          <path id="Path_258" data-name="Path 258" class="cls-2" d="M321.94,394.082c-.182.12-.369.236-.558.345a1.03,1.03,0,1,0,1.029,1.784c.225-.129.448-.267.664-.41a1.03,1.03,0,0,0-1.135-1.718Z" transform="translate(-303.198 -372.313)"/>
          <path id="Path_259" data-name="Path 259" class="cls-2" d="M429.693,208.3a1.03,1.03,0,1,0-2.058.081c.009.217.011.438.006.655a1.03,1.03,0,1,0,2.059.046C429.706,208.823,429.7,208.56,429.693,208.3Z" transform="translate(-404.086 -195.989)"/>
          <path id="Path_260" data-name="Path 260" class="cls-2" d="M378.853,344.275a1.029,1.029,0,0,0-1.442.206c-.131.174-.268.346-.409.512a1.03,1.03,0,0,0,.116,1.452c.025.021.05.04.075.058a1.03,1.03,0,0,0,1.376-.175c.168-.2.332-.4.489-.611A1.03,1.03,0,0,0,378.853,344.275Z" transform="translate(-356.009 -325.215)"/>
          <path id="Path_261" data-name="Path 261" class="cls-2" d="M415.325,279.4a1.03,1.03,0,0,0-1.291.675c-.065.207-.137.416-.215.62a1.03,1.03,0,0,0,1.924.733c.092-.243.178-.49.256-.737A1.03,1.03,0,0,0,415.325,279.4Z" transform="translate(-390.968 -264.062)"/>
          <path id="Path_262" data-name="Path 262" class="cls-2" d="M10.9,25.075a10.633,10.633,0,0,1-2.641-.839l-.029-.016c-.2-.093-.394-.192-.585-.3l0,0a10.987,10.987,0,0,1-1.025-.64,10.746,10.746,0,0,1,.045-17.6L6.7,5.654a10.764,10.764,0,0,1,12.064-.1l-.8,1.163c-.224.324-.086.559.306.524l3.495-.313a.576.576,0,0,0,.521-.753L21.345,2.8c-.105-.379-.374-.424-.6-.1L19.94,3.861a12.718,12.718,0,0,0-9.319-1.982q-.494.086-.975.208H9.639L9.6,2.1A12.7,12.7,0,0,0,2.561,6.818c-.015.018-.03.035-.044.054-.058.079-.116.159-.173.24-.093.132-.184.267-.272.4-.011.016-.019.033-.029.049A12.7,12.7,0,0,0,.014,15.052c0,.009,0,.017,0,.026.012.258.032.52.06.778,0,.017.005.032.008.049.029.259.065.519.11.779a12.709,12.709,0,0,0,3.584,6.892l.013.014,0,0a12.976,12.976,0,0,0,1.641,1.371A12.7,12.7,0,0,0,10.54,27.1a1.03,1.03,0,0,0,.363-2.027Z" transform="translate(0 -1.688)"/>
          <path id="Path_263" data-name="Path 263" class="cls-2" d="M206.821,83.2a.833.833,0,0,0-.834.833v8.3l7.592,3.925a.833.833,0,0,0,.765-1.48l-6.691-3.459V84.031A.833.833,0,0,0,206.821,83.2Z" transform="translate(-194.644 -78.71)"/>
        </g>
      </g>
    </g>
  </g>
</svg>
