<svg id="home-run" xmlns="http://www.w3.org/2000/svg" width="26.756" height="25.431" viewBox="0 0 26.756 25.431">
  <g id="Group_537" data-name="Group 537" transform="translate(0 0)">
    <g id="Group_536" data-name="Group 536">
      <path id="Path_727" data-name="Path 727" d="M26.306,23.974l-12-10.938a1.366,1.366,0,0,0-1.848,0l-12,10.938a1.372,1.372,0,0,0,.924,2.386H3.291V37.32a.787.787,0,0,0,.787.787h6.58a.787.787,0,0,0,.787-.787V30.665h3.867V37.32a.787.787,0,0,0,.787.787h6.58a.787.787,0,0,0,.787-.787V26.36h1.918a1.372,1.372,0,0,0,.924-2.386Z" transform="translate(0 -12.675)"/>
    </g>
  </g>
  <g id="Group_539" data-name="Group 539" transform="translate(17.975 1.571)">
    <g id="Group_538" data-name="Group 538">
      <path id="Path_728" data-name="Path 728" d="M349.257,42.73h-5.284l6.071,5.52V43.517A.787.787,0,0,0,349.257,42.73Z" transform="translate(-343.973 -42.73)"/>
    </g>
  </g>
</svg>
